<?xml version="1.0"?>
<svg xmlns="http://www.w3.org/2000/svg" viewBox="0 0 64 64" width="512" height="512"><g id="Bottle-14" data-name="Bottle"><path d="M45.473,16.381l-6.747-1.928A1,1,0,0,1,38,13.491V12h1a2,2,0,0,0,2-2V4a2,2,0,0,0-2-2H25a2,2,0,0,0-2,2v6a2,2,0,0,0,2,2h1v1.491a1,1,0,0,1-.725.962l-6.748,1.928A9.037,9.037,0,0,0,12,25.034V57a5.006,5.006,0,0,0,5,5H47a5.006,5.006,0,0,0,5-5V25.034A9.037,9.037,0,0,0,45.473,16.381ZM25,4h2V7h2V4h2V7h2V4h2V7h2V4h2v6H25ZM19.076,18.3l6.749-1.928A3.014,3.014,0,0,0,28,13.491V12h8v1.491a3.014,3.014,0,0,0,2.176,2.885L44.924,18.3A7.029,7.029,0,0,1,50,25.034V30H14V25.034A7.029,7.029,0,0,1,19.076,18.3ZM50,32V50H14V32ZM47,60H17a3,3,0,0,1-3-3V52H50v5A3,3,0,0,1,47,60Z"/><path d="M32,48a7,7,0,1,0-7-7A7.008,7.008,0,0,0,32,48Zm0-12a5,5,0,1,1-5,5A5.006,5.006,0,0,1,32,36Z"/></g></svg>
