<svg id="Capa_1" enable-background="new 0 0 511.888 511.888" height="512" viewBox="0 0 511.888 511.888" width="512" xmlns="http://www.w3.org/2000/svg"><path d="m502.591 181.763c-15.667-38.537-49.468-66.107-90.417-73.75-3.526-.658-6.306-3.475-6.917-7.009-7.106-41.046-34.23-75.205-72.559-91.376-29.919-12.624-62.963-12.84-93.046-.61-72.094 29.31-86.108 113.536-83.534 182.857.872 23.477 5.019 61.835 21.527 88.963l-72.067 72.067c-2.929 2.929-2.929 7.678 0 10.606 2.929 2.929 7.678 2.929 10.606 0l70.495-70.496c2.093 2.3 4.312 4.46 6.696 6.418 6.462 5.306 12.386 11.309 17.608 17.84 2.443 3.055 5.197 5.862 8.184 8.46l-164.55 164.55c-8.989 8.989-23.614 8.99-32.604 0-8.989-8.989-8.989-23.615 0-32.604l72.659-72.659c2.929-2.929 2.929-7.678 0-10.606-2.929-2.929-7.678-2.929-10.606 0l-72.659 72.659c-14.837 14.837-14.837 38.979 0 53.817 14.663 14.664 39.154 14.664 53.817 0l166.321-166.32c26.765 15.785 63.661 20.221 86.499 21.369 69.273 3.482 153.693-9.448 183.937-81.13 12.624-29.919 12.84-62.964.61-93.046zm-14.43 87.215c-27.491 65.157-107.048 75.109-169.363 71.979-46.133-2.319-81.16-14.365-96.098-33.05-5.874-7.347-12.537-14.099-19.805-20.067-18.488-15.181-30.074-50.363-31.788-96.522-2.324-62.599 8.446-141.675 74.194-168.405 26.092-10.608 55.607-10.418 81.566.535 33.6 14.176 57.379 44.125 63.609 80.114 1.676 9.679 9.289 17.393 18.946 19.195 35.904 6.702 65.539 30.872 79.273 64.655 10.722 26.371 10.532 55.338-.534 81.566z"/><path d="m282.322 122.336c-2.929-2.929-7.678-2.929-10.606 0l-8.642 8.642c-2.929 2.929-2.929 7.678 0 10.606 1.464 1.464 3.384 2.197 5.303 2.197s3.839-.732 5.303-2.197l8.642-8.642c2.929-2.928 2.929-7.677 0-10.606z"/><path d="m292.659 174.907c-6.406 6.405-10.202 14.709-10.688 23.382-.505 8.99 2.57 17.294 8.658 23.382 5.815 5.816 13.551 8.686 21.516 8.686 8.926 0 18.139-3.607 25.248-10.716 16.839-16.839 1.732-31.946-5.527-39.206-7.262-7.262-22.368-22.369-39.207-5.528zm34.126 34.126c-3.795 3.795-8.631 6.039-13.617 6.319-4.671.26-8.907-1.261-11.934-4.288-3.027-3.028-4.55-7.266-4.289-11.935.28-4.986 2.524-9.822 6.319-13.616 2.59-2.59 4.331-3.193 5.554-3.193.634 0 1.129.162 1.532.293 3.248 1.063 7.336 4.856 10.907 8.427 11.285 11.285 9.85 13.671 5.528 17.993z"/><path d="m379.356 229.976-8.642 8.642c-2.929 2.929-2.929 7.678 0 10.606 1.464 1.464 3.384 2.197 5.303 2.197s3.839-.732 5.303-2.197l8.642-8.642c2.929-2.929 2.929-7.678 0-10.606-2.928-2.929-7.677-2.929-10.606 0z"/></svg>