<svg id="icons" enable-background="new 0 0 64 64" height="512" viewBox="0 0 64 64" width="512" xmlns="http://www.w3.org/2000/svg"><path d="m18.004 12.995c-.007 0-.013.004-.02.004h-1.98c-2.749 0-4.984 2.23-4.998 4.977 0 .011-.006.021-.006.031v36.983c0 .004-.002.006-.002.01 0 4.963 4.037 9 9 9h24.018c.002 0 .003-.001.005-.001 4.954-.01 8.981-4.042 8.981-8.999 0-.004-.002-.006-.002-.01v-36.983c0-.011-.006-.021-.006-.031-.014-2.746-2.249-4.977-4.998-4.977h-1.98c-.007 0-.013-.004-.02-.004-1.654 0-3-1.346-3-3v-1.993h1.004c.553 0 1-.447 1-1v-6.002c0-.553-.447-1-1-1h-23.992c-.553 0-1 .447-1 1v6.002c0 .553.447 1 1 1h.996v1.993c0 1.654-1.346 3-3 3zm27.953 1.996c.014.001.025.008.039.008h2c1.654 0 3 1.346 3 3 0 .007.004.013.004.02v36.981c0 .003.002.005.002.008-.005 3.855-3.144 6.992-7 6.992h-24.004c-3.856 0-6.995-3.137-7-6.992 0-.003.002-.005.002-.008v-36.981c0-.007.004-.013.004-.02 0-1.654 1.346-3 3-3h2c.014 0 .025-.007.039-.008 1.611-.013 3.031-.8 3.938-1.998h20.039c.906 1.198 2.326 1.986 3.937 1.998zm-24.949-12.991h21.992v4.002h-.994c-.004 0-.006-.002-.01-.002s-.006.002-.01.002h-19.972c-.004 0-.006-.002-.01-.002s-.006.002-.01.002h-.986zm19.988 6.002v1.993c0 .342.035.676.101.998h-18.194c.065-.322.101-.656.101-.998v-1.993z"/><path d="m15 22.999v29.002c0 .553.447 1 1 1h32c.553 0 1-.447 1-1v-29.002c0-.553-.447-1-1-1h-32c-.553 0-1 .447-1 1zm2 1h30v27.002h-30z"/><path d="m32 41.993c4.963 0 9-4.037 9-9 0-.553-.447-1-1-1-2.757 0-5-2.243-5-5 0 0 0 0 0-.001 0-.553-.447-1-1-1h-4c-.002 0-.004.001-.007.001-3.856.004-6.993 3.143-6.993 7 0 4.963 4.037 9 9 9zm0-2c-3.519 0-6.432-2.614-6.92-6h13.84c-.488 3.386-3.401 6-6.92 6zm-3.722-8c.347-.595.985-1 1.722-1s1.375.405 1.722 1zm1.722-4c.002 0 .003-.001.005-.001h3.075c.224 1.557.956 2.95 2.03 4.001h-1.252c-.447-1.721-2-3-3.858-3s-3.411 1.279-3.858 3h-1.04c.463-2.279 2.484-4 4.898-4z"/><path d="m42 43.999h-20c-.553 0-1 .447-1 1s.447 1 1 1h20c.553 0 1-.447 1-1s-.447-1-1-1z"/><path d="m37 46.999h-10c-.553 0-1 .447-1 1s.447 1 1 1h10c.553 0 1-.447 1-1s-.447-1-1-1z"/></svg>